<svg xmlns="http://www.w3.org/2000/svg" viewBox="0 0 324 268" width="324" height="268">
	<style>
		tspan { white-space:pre }
		.shp0 { fill: #ffffff } 
	</style>
	<path id="Path 59 copy" fill-rule="evenodd" class="shp0" d="M290.47 185.16L80.7 185.16L185.58 3.5L290.47 185.16ZM113.89 166L257.28 166L185.58 41.82L113.89 166Z" />
	<path id="Path 60 copy" fill-rule="evenodd" class="shp0" d="M102.82 185.16L33.53 185.16L113.95 45.88L148.6 105.88L102.82 185.16ZM66.72 166L91.76 166L126.47 105.88L113.95 84.2L66.72 166ZM216.97 95.53C208.5 87.06 200.33 87.34 189.03 87.72C186.69 87.8 184.26 87.88 181.75 87.88C163.61 87.88 156.1 70.49 154.66 61.3L173.58 58.28C173.6 58.38 175.44 68.72 181.75 68.72C183.93 68.72 186.09 68.65 188.38 68.57C201.4 68.12 216.16 67.62 230.52 81.98L216.97 95.53ZM34.95 228.18L34.95 233.69L20.34 233.69L20.34 233.69L14.62 233.69L14.62 203.34L34.95 203.34L34.95 208.85L20.34 208.85L20.34 215.86L32.65 215.86L32.65 221.37L20.34 221.37L20.34 228.18L34.95 228.18ZM56.08 234C56.08 234 55.39 233.85 54.01 233.56C52.62 233.27 51.32 232.84 50.1 232.28C48.89 231.71 47.8 231.04 46.84 230.24L49.49 225.53C50.66 226.49 52 227.23 53.54 227.75C55.07 228.27 56.64 228.53 58.25 228.53C60.12 228.53 61.56 228.21 62.59 227.58C63.62 226.95 64.14 226.06 64.14 224.9L64.14 224.88C64.14 224.07 63.91 223.43 63.45 222.96C62.99 222.49 62.39 222.14 61.66 221.92C60.92 221.69 59.97 221.49 58.82 221.31C58.77 221.3 58.74 221.29 58.7 221.29C58.67 221.29 58.63 221.28 58.59 221.27L58.13 221.21C56.1 220.89 54.41 220.49 53.08 220C51.74 219.53 50.61 218.68 49.67 217.48C48.74 216.28 48.28 214.57 48.28 212.36L48.28 212.34C48.28 210.37 48.71 208.7 49.59 207.31C50.47 205.91 51.74 204.85 53.41 204.12C55.08 203.39 57.1 203.03 59.46 203.03C60.55 203.03 61.66 203.15 62.79 203.4C63.93 203.65 65.04 204.01 66.12 204.49C67.21 204.96 68.24 205.53 69.21 206.2L66.79 211.04C65.62 210.23 64.4 209.61 63.13 209.16C61.85 208.72 60.63 208.5 59.46 208.5C57.71 208.5 56.35 208.78 55.39 209.36C54.43 209.94 53.95 210.75 53.95 211.79L53.95 211.81C53.95 212.69 54.2 213.38 54.71 213.89C55.21 214.4 55.83 214.77 56.56 215.01C57.3 215.24 58.34 215.49 59.67 215.76C59.73 215.77 59.78 215.78 59.84 215.79C59.89 215.8 59.95 215.81 60.01 215.82C60.09 215.83 60.17 215.85 60.25 215.87C60.32 215.89 60.4 215.91 60.49 215.93C62.41 216.3 64.01 216.76 65.3 217.29C66.58 217.83 67.66 218.69 68.52 219.88C69.38 221.07 69.82 222.7 69.82 224.75L69.82 224.8C69.82 226.73 69.36 228.39 68.46 229.76C67.55 231.14 66.24 232.19 64.5 232.92C62.77 233.64 60.69 234 58.25 234L56.08 234ZM89.63 234C89.63 234 88.81 233.56 87.17 232.67C85.53 231.79 84.28 230.5 83.41 228.81C82.55 227.12 82.12 225.08 82.12 222.69L82.12 214.36C82.12 211.97 82.55 209.92 83.41 208.23C84.28 206.54 85.53 205.25 87.17 204.36C88.81 203.47 90.79 203.03 93.1 203.03C95.01 203.03 96.71 203.44 98.21 204.26C99.72 205.08 100.96 206.27 101.94 207.84C102.92 209.4 103.6 211.29 103.97 213.5L98.05 213.5C97.82 212.5 97.48 211.65 97.01 210.94C96.55 210.23 95.98 209.68 95.32 209.31C94.66 208.93 93.92 208.75 93.1 208.75C92.03 208.75 91.12 208.96 90.36 209.4C89.61 209.84 89.04 210.48 88.64 211.32C88.25 212.17 88.05 213.18 88.05 214.36L88.05 222.69C88.05 223.87 88.25 224.88 88.64 225.71C89.04 226.55 89.61 227.19 90.36 227.62C91.12 228.06 92.03 228.28 93.1 228.28C93.93 228.28 94.68 228.1 95.35 227.73C96.02 227.36 96.58 226.82 97.04 226.11C97.5 225.4 97.84 224.54 98.05 223.52L103.97 223.52C103.58 225.74 102.9 227.62 101.92 229.19C100.94 230.75 99.7 231.95 98.2 232.77C96.71 233.59 95.01 234 93.1 234L89.63 234Z" />
	<path id="Path 61 copy" fill-rule="evenodd" class="shp0" d="M125.17 203.34L128.8 203.34L140.41 233.69L134.25 233.69L132.55 228.82L135.1 228.82L135.1 223.31L130.61 223.31L126.99 212.96L123.36 223.31L119.14 223.31L119.14 228.82L121.43 228.82L119.72 233.69L113.57 233.69L125.17 203.34ZM121.43 228.82L123.36 223.31L130.61 223.31L132.55 228.82L121.43 228.82ZM173.04 228.18L173.04 233.69L158.43 233.69L158.43 233.69L152.71 233.69L152.71 203.34L158.43 203.34L158.43 228.18L173.04 228.18ZM194.86 203.34L198.5 203.34L210.1 233.69L203.94 233.69L202.24 228.82L204.8 228.82L204.8 223.31L200.31 223.31L196.68 212.96L193.05 223.31L188.83 223.31L188.83 228.82L191.12 228.82L189.42 233.69L183.26 233.69L194.86 203.34ZM191.12 228.82L193.05 223.31L200.31 223.31L202.24 228.82L191.12 228.82ZM231.38 233.69L225.66 233.69L225.66 208.85L217.4 208.85L217.4 203.34L239.65 203.34L239.65 208.85L231.38 208.85L231.38 233.69ZM255.34 232.61C253.67 231.69 252.37 230.38 251.45 228.69C250.53 227 250.08 225.04 250.08 222.81L250.08 214.21C250.08 211.99 250.53 210.03 251.45 208.34C252.37 206.65 253.67 205.34 255.34 204.42C257.02 203.49 258.96 203.03 261.16 203.03C263.36 203.03 265.29 203.49 266.97 204.42C268.65 205.34 269.94 206.65 270.86 208.34C271.78 210.03 272.24 211.99 272.24 214.21L272.24 222.81C272.24 225.04 271.78 227 270.86 228.69C269.94 230.38 268.65 231.69 266.97 232.61C265.29 233.54 263.36 234 261.16 234C258.96 234 257.02 233.54 255.34 232.61ZM263.87 227.62C264.65 227.19 265.25 226.56 265.68 225.76C266.1 224.95 266.31 224.02 266.31 222.96L266.31 214.07C266.31 213.01 266.1 212.08 265.68 211.27C265.25 210.46 264.65 209.84 263.87 209.4C263.09 208.96 262.19 208.75 261.16 208.75C260.13 208.75 259.22 208.96 258.44 209.4C257.66 209.84 257.06 210.46 256.64 211.27C256.21 212.08 256 213.01 256 214.07L256 222.96C256 224.02 256.21 224.95 256.64 225.76C257.06 226.56 257.66 227.19 258.44 227.62C259.22 228.06 260.13 228.28 261.16 228.28C262.19 228.28 263.09 228.06 263.87 227.62ZM309.38 233.69L302.45 233.69L295.61 221.48L292.14 221.48L292.14 233.69L286.42 233.69L286.42 203.32L299.72 203.32C301.39 203.32 302.86 203.69 304.12 204.45C305.39 205.2 306.37 206.26 307.06 207.63C307.76 209 308.11 210.59 308.11 212.4C308.11 214.21 307.76 215.8 307.06 217.17C306.37 218.54 305.38 219.6 304.11 220.35C303.49 220.71 302.83 220.99 302.13 221.18L309.38 233.69ZM299.26 215.97C299.84 215.97 300.36 215.82 300.8 215.53C301.25 215.24 301.59 214.82 301.84 214.28C302.08 213.73 302.21 213.11 302.22 212.4C302.22 211.69 302.1 211.06 301.86 210.52C301.61 209.98 301.27 209.56 300.82 209.27C300.38 208.98 299.86 208.83 299.26 208.83L292.14 208.83L292.14 215.97L299.26 215.97Z" />
</svg>